# xmcd
# 
# Track frame offsets:
#     182
#     17252
#     34420
#     51570
#     65102
#     81982
#     99355
#     118387
#     137155
#     152957
# 
# Disc length: 2278
# 
# Revision: 2
# Processed by: cddbd v1.5.2PL0 Copyright (c) Steve Scherf et al.
# Submitted via: fre:ac v1.0.17
# 
DISCID=9008e40a
DTITLE=Travis Tritt - No More Looking Over My Shoulder
DYEAR=1998
DGENRE=Country
TTITLE0=No More Looking Over My Shoulder
TTITLE1=Rough Around the Edges
TTITLE2=If I Lost You
TTITLE3=Girls Like That
TTITLE4=For You
TTITLE5=I'm All The Man
TTITLE6=Tougher Than The Rest
TTITLE7=Start The Car
TTITLE8=Mission Of Love
TTITLE9=The Road To You
EXTD=YEAR: 1998 ID3G:   2
EXTT0=
EXTT1=
EXTT2=
EXTT3=
EXTT4=
EXTT5=
EXTT6=
EXTT7=
EXTT8=
EXTT9=
PLAYORDER=
